<?xml version="1.0" encoding="utf-8"?>
<!-- Generator: Adobe Illustrator 16.0.3, SVG Export Plug-In . SVG Version: 6.00 Build 0)  -->
<!DOCTYPE svg PUBLIC "-//W3C//DTD SVG 1.1//EN" "http://www.w3.org/Graphics/SVG/1.1/DTD/svg11.dtd">
<svg version="1.1" id="Capa_1" xmlns="http://www.w3.org/2000/svg" xmlns:xlink="http://www.w3.org/1999/xlink" x="0px" y="0px"
	 width="612px" height="792px" viewBox="0 0 612 792" enable-background="new 0 0 612 792" xml:space="preserve">
<path fill-rule="evenodd" clip-rule="evenodd" fill="#FDFDFD" d="M165.424,178.302l-0.383,0.317l0.414-0.276
	c-0.604-0.644-1.21-1.288-1.815-1.933c-1.293-2.618-2.726-4.513-5.213-1.017c-0.545,0.02-1.089,0.042-1.635,0.062
	c-5.732-16.061-15.244-29.351-28.651-39.969c-25.813-20.443-67.341-11.37-85.396,8.209c-8.944,9.699-16.286,20.433-22.538,32.006
	c-0.89,1.648-0.48,4.986-4.709,3.874c-6.744-1.773-9.271,3.537-10.774,8.554c-1.651,5.512-0.161,10.293,5.883,12.572
	c0.175,1.013,0.351,2.03,0.526,3.043c-0.273,4.09-0.581,8.178-0.812,12.271c-0.864,15.251,2.416,29.694,7.497,44.039
	c11.384,32.133,60.624,61.755,105.44,32.875c5.496-3.542,7.483-2.647,9.861,3.193c4.239,10.405,7.306,21.908,19.092,27.17
	c0.723,0.321,1.204,1.701,1.374,2.664c3.253,18.357,14.894,35.049,9.75,55.192c-1.996,7.814,0.345,16.198,2.667,24.172
	c2.895,9.941,5.199,20.053,7.768,30.088c1.45,5.66,1.331,11.283,0.231,17.031c-1.235,6.467-2.97,7.918-9.215,3.617
	c-36.419-25.086-73.156-49.707-109.775-74.501c-2.209-1.495-4.337-3.11-7.244-5.2c3.067-1.089,5.243-1.922,7.453-2.644
	c30.05-9.811,60.102-19.62,90.165-29.39c3.415-1.112,7.022-1.724,4.354-6.853c-1.919-3.688-1.969-8.087-8.795-5.507
	c-26.764,10.113-53.814,19.469-80.738,29.167c-10.808,3.891-21.562,7.93-33.509,12.333
	c88.899,64.29,178.151,125.487,269.397,185.292c5.461-20.488,10.672-40.215,16.021-59.904c0.873-3.215-0.488-3.541-3.156-3.742
	c-4.701-0.354-7.35,0.729-8.51,6.08c-1.971,9.092-5.033,17.949-7.952,27.98c-10.163-14.027-20.893-25.789-33.462-35.379
	c-10.926-8.332-15.937-17.164-12.353-31.346c3.516-13.92,4.61-29.074,9.215-42.068c5.115-14.432,4.966-27.249,2.652-41.188
	c-1.372-8.273-5.979-11.894-14.354-10.42c-0.151-0.5-0.285-1.001-0.405-1.51c0.189-0.418,0.213-0.846,0.067-1.281
	c0.276-0.386,0.478-0.81,0.601-1.267c1.914,0.064,3.83,0.128,5.743,0.188c2.723,0.463,0.749-1.582,1.234-2.313
	c0.6-0.026,1.197-0.054,1.795-0.08c3.095,1.143,3.689,0.899,2.884-2.479c-1.737-7.293,1.36-13.108,5.055-18.793
	c1.036-1.589,2.35-2.905,2.309-4.993c-0.151-7.62-2.034-15.154-1.104-22.824c2.03-0.914,2.892-2.308,1.837-4.484
	c-0.475-4.228,3.288-7.473,2.013-11.946c2.898,0.684,3.505,2.486,4.199,4.27c3.223,8.279,4.518,16.767,3.218,25.633
	c-0.867,5.905,0.455,8.87,7.799,7.964c20.129-2.479,32.899-13.056,41.971-31.18c12.889-25.748,4.99-54.98-18.506-71.191
	c-17.866-12.322-50.747-8.389-66.246,11.875c-3.64,4.758-5.655,12.839-11.06,13.604c-5.462,0.772-11.601-3.843-17.548-5.775
	c-10.838-3.521-20.975-8.99-32.538-10.586c-6.586-0.911-12.938-3.395-9.243-12.748c0.723-1.827,1.691-5.638-2.166-5.704
	c-3.749-0.064-2.921-2.053-2.772-4.123c0.254-3.531,0.514-7.061,0.772-10.59c0.537-3.755,1.073-7.51,1.611-11.265
	c0.211,0.505,0.538,0.91,0.979,1.213c0.601,2.568,1.516,4.948,3.928,6.626c0.815-2.393,0.325-4.542-0.599-6.655
	c0.361-4.528-0.743-8.823-2.056-13.086c0.27-1.407-0.119-2.587-1.214-3.523c0.167-0.509,0.079-0.97-0.262-1.383
	C166.141,179.675,165.782,178.987,165.424,178.302z"/>
<path fill-rule="evenodd" clip-rule="evenodd" fill="#FDFDFD" d="M355.521,538.288c62.373-12.363,123.551-24.49,184.729-36.615
	c-0.09-0.59-0.178-1.176-0.268-1.764c-2.719,0-5.436,0-8.154,0c-37.725,0-75.449-0.119-113.17,0.109
	c-6.316,0.037-7.313-1.266-4.861-7.195c5.592-13.52,10.455-27.34,15.775-41.473c-2.223-0.123-3.559-0.258-4.896-0.258
	c-31.436-0.012-62.873,0.014-94.309-0.068c-2.002-0.004-4.605,1.18-5.986-1.029c-2.357-3.775,4.76-15.844,9.283-15.855
	c18.59-0.059,37.184-0.225,55.764,0.098c4.742,0.084,6.813-1.588,8.158-5.811c2.566-8.043,5.201-16.092,8.406-23.891
	c2.609-6.35,2.289-8.866-5.754-8.614c-18.295,0.577-36.625,0.229-54.938,0.139c-1.992-0.012-4.658,1.162-5.887-1.348
	c-2.287-4.664,5.805-17.096,11.006-17.102c19.135-0.02,38.271,0.013,57.406-0.03c2.852-0.006,6.002,0.901,7.58-2.97
	c5.566-13.664,13.275-25.762,27.955-34.333c-43.406,0-84.664,0.106-125.918-0.126c-5.424-0.03-7.352,1.623-8.66,6.891
	c-6.633,26.714-13.807,53.293-20.768,79.924c-5.335,20.408-10.639,40.826-16.196,62.158c34.447,0,67.863,0,102.123,0
	C367.692,505.806,361.782,521.573,355.521,538.288z"/>
<path fill-rule="evenodd" clip-rule="evenodd" fill="#FDFDFD" d="M607.903,337.852c-41.916,0-82.629-0.852-123.289,0.301
	c-26.838,0.76-47.725,14.059-58.613,39.103c-8.338,19.175-14.246,39.404-21.357,59.119c-1.582,4.389,0.225,4.932,4.057,4.855
	c10.102-0.201,20.221-0.314,30.314,0.053c4.51,0.166,6.631-1.193,8.307-5.494c6.52-16.736,13.811-33.176,20.178-49.971
	c2.182-5.751,4.908-7.68,11.131-7.622c35.777,0.333,71.563,0.166,107.346,0.141c3.391,0,6.98,0.969,8.631-3.827
	C598.753,362.456,603.276,350.531,607.903,337.852z"/>
<path fill-rule="evenodd" clip-rule="evenodd" fill="#FDFDFD" d="M566.093,451.069c-32.357,0-63.461-0.104-94.561,0.061
	c-10.602,0.055-24.051-4.291-31.031,1.568c-7.213,6.055-8.193,19.525-11.91,29.748c-0.186,0.51-0.494,0.975-0.693,1.48
	c-1.469,3.711,0.047,4.635,3.709,4.625c38.758-0.098,77.516-0.086,116.275-0.035c2.719,0.008,4.654-0.506,5.684-3.365
	C557.511,474.19,561.591,463.278,566.093,451.069z"/>
<path fill-rule="evenodd" clip-rule="evenodd" fill="#FDFDFD" d="M377.341,251.699c-10.678,3.43-19.908,6.343-29.102,9.359
	c-11.176,3.667-11.162,3.706-8.1,16.195c6.047-1.939,12.082-3.874,19.617-6.288c-4.809,19.124-9.311,36.703-13.568,54.34
	c-0.568,2.35-3.631,6.241,1.092,7.153c3.748,0.724,8.457,2.06,10-4.775c3.23-14.315,7.432-28.41,11.213-42.6
	C371.337,274.418,374.149,263.744,377.341,251.699z"/>
<path fill-rule="evenodd" clip-rule="evenodd" fill="#711442" d="M244.2,368.769c8.375-1.474,12.981,2.146,14.354,10.42
	c2.313,13.938,2.463,26.756-2.652,41.188c-4.604,12.994-5.699,28.148-9.215,42.068c-3.584,14.182,1.427,23.014,12.353,31.346
	c12.569,9.59,23.299,21.352,33.462,35.379c2.918-10.031,5.981-18.889,7.952-27.98c1.16-5.352,3.809-6.434,8.51-6.08
	c2.668,0.201,4.029,0.527,3.156,3.742c-5.35,19.689-10.561,39.416-16.021,59.904C204.85,498.95,115.598,437.753,26.699,373.463
	c11.947-4.404,22.701-8.442,33.509-12.333c26.924-9.697,53.974-19.053,80.738-29.167c6.826-2.581,6.876,1.818,8.795,5.507
	c2.668,5.129-0.939,5.741-4.354,6.853c-30.063,9.771-60.114,19.579-90.165,29.39c-2.21,0.722-4.386,1.555-7.453,2.644
	c2.907,2.09,5.035,3.706,7.244,5.2c36.62,24.794,73.356,49.415,109.775,74.501c6.245,4.301,7.98,2.85,9.215-3.617
	c1.1-5.748,1.218-11.371-0.231-17.031c-2.569-10.035-4.873-20.146-7.768-30.088c-2.323-7.975-4.663-16.358-2.667-24.172
	c5.144-20.143-6.497-36.835-9.75-55.192c-0.17-0.963-0.651-2.343-1.374-2.664c-11.787-5.262-14.854-16.765-19.092-27.17
	c-2.377-5.84-4.365-6.734-9.861-3.193c-44.816,28.88-94.056-0.742-105.44-32.875c-5.082-14.345-8.361-28.788-7.497-44.039
	c0.231-4.093,0.538-8.181,0.812-12.271c6.766-2.324,12.819,3.1,21.125,1.938c-7.656-4.446-14.197-6.605-21.652-4.98
	c-6.044-2.279-7.534-7.06-5.883-12.572c1.503-5.018,4.03-10.328,10.774-8.554c4.229,1.112,3.819-2.226,4.709-3.874
	c6.252-11.573,13.594-22.307,22.538-32.006c18.055-19.58,59.583-28.653,85.396-8.209c13.407,10.618,22.918,23.908,28.651,39.969
	c-0.264,2.527,0.083,4.652,3.23,4.956c0.244,0.737,0.485,1.478,0.728,2.216c0.212-0.159,0.626-0.436,0.61-0.461
	c-0.376-0.637-0.795-1.25-1.209-1.866c-0.574-1.636-1.148-3.271-1.724-4.906c2.487-3.496,3.92-1.601,5.213,1.017
	c0.119,1.1,0.718,1.75,1.815,1.933l-0.414,0.276c0,0,0.383-0.317,0.382-0.317c0.359,0.688,0.718,1.373,1.076,2.061
	c0.341,0.413,0.428,0.875,0.262,1.383c-0.267,1.404,0.005,2.626,1.214,3.523c1.313,4.263,2.417,8.558,2.056,13.086
	c-1.109,0.009-2.218,0.02-3.329,0.029c-0.441-0.303-0.769-0.708-0.979-1.213c-2.796-0.693-1.404-4.171-4.093-5.898
	c-1.777,6.458-1.119,11.981,2.481,17.164c-0.259,3.53-0.518,7.059-0.772,10.59c-0.149,2.069-0.977,4.059,2.772,4.123
	c3.857,0.066,2.889,3.877,2.166,5.704c-3.695,9.353,2.656,11.836,9.243,12.748c11.563,1.596,21.7,7.065,32.538,10.586
	c5.947,1.933,12.086,6.547,17.548,5.775c5.404-0.764,7.42-8.845,11.06-13.604c15.499-20.264,48.38-24.197,66.246-11.875
	c23.496,16.21,31.395,45.443,18.506,71.191c-9.072,18.125-21.842,28.702-41.971,31.18c-7.344,0.906-8.666-2.06-7.799-7.964
	c1.3-8.866,0.005-17.354-3.218-25.633c-0.694-1.784-1.301-3.586-4.199-4.27c1.275,4.473-2.487,7.718-2.009,11.947
	c-8.113,3.24-6.921-6.76-11.763-8.525c1.269,8.573,1.269,8.573,9.922,13.009c-0.931,7.67,0.952,15.205,1.104,22.824
	c0.041,2.088-1.272,3.404-2.309,4.993c-3.694,5.685-6.792,11.5-5.055,18.793c0.806,3.378,0.211,3.622-2.884,2.479
	c-0.164-3.959-1.826-7.299-4.411-10.173c-1.247-1.388-2.906-3.118-4.668-0.966c-1.283,1.566-0.06,2.702,1.506,3.787
	c2.461,1.707,4.385,4.013,4.653,7.25c-0.036,0.833-0.071,1.666-0.108,2.499c-1.914-0.064-3.83-0.128-5.745-0.194
	c-0.243-0.209-0.483-0.423-0.718-0.641c-0.192-2.033,0.437-5.145-2.133-5.312c-3.485-0.229-2.445,3.212-2.782,5.362
	c-10.297,1.259-0.146,6.877-2.243,10.127c1.608-2.313,3.671-3.763,5.72-5.223C242.937,368.937,243.568,368.854,244.2,368.769z"/>
<path fill-rule="evenodd" clip-rule="evenodd" fill="#711442" d="M200.81,357.542c3.74-2.498,4.044,1.555,5.229,3.057
	c5.004,6.34,7.073,14.315,11.038,22.396c3.087-13.713-3.549-21.999-12.354-29.031c-2.142-1.709-6.126-4.658-6.989,1.723
	c-11.576-8.047-15.059-19.952-16.112-33.749c5.686,3.4,9.24,8.334,10.576,13.647c2.321,9.225,6.509,9.235,13.277,4.294
	c-12.345-5.319-13.921-16.246-13.202-27.327c1.118-17.241,13.18-25.431,28.078-30.253c7.188-2.328,3.37-8.634,5.252-12.849
	c1.089-2.442-0.017-4.483-3.112-5.495c-18.13-5.921-36.199-12.034-54.276-18.114c-2.41-0.812-4.031-0.513-5.245,2.073
	c-4.291,9.152-9.122,17.998-15.375,26.013c-1.405,1.8-2.387,4.218,1.188,4.776c7.346,1.148,9.697,7.374,12.838,12.575
	c4.513,7.471,4.268,17.092,12.487,23.247c4.261,3.189,3.143,10.671,4.035,16.299c1.708,10.75,2.443,21.765,8.696,31.232
	c2.442,3.696,4.904,8.431,8.125-0.188c2.02,3.628,3.571,6.417,5.173,9.296C203.719,366.505,201.896,362.014,200.81,357.542z"/>
<path fill-rule="evenodd" clip-rule="evenodd" fill="#711442" d="M176.061,382.821c0.684-5.984-1.99-10.349-7.3-15.596
	C169.456,374.623,174.574,377.919,176.061,382.821z"/>
<path fill-rule="evenodd" clip-rule="evenodd" fill="#111111" d="M355.521,538.288c6.262-16.715,12.172-32.482,18.42-49.162
	c-34.26,0-67.676,0-102.123,0c5.558-21.332,10.861-41.75,16.196-62.158c6.961-26.631,14.135-53.21,20.768-79.924
	c1.309-5.269,3.236-6.921,8.66-6.891c41.254,0.232,82.512,0.126,125.918,0.126c-14.68,8.572-22.389,20.67-27.955,34.333
	c-1.578,3.872-4.729,2.964-7.58,2.97c-19.135,0.043-38.271,0.011-57.406,0.03c-5.201,0.006-13.293,12.438-11.006,17.102
	c1.229,2.51,3.895,1.336,5.887,1.348c18.313,0.09,36.643,0.438,54.938-0.139c8.043-0.252,8.363,2.264,5.754,8.614
	c-3.205,7.799-5.84,15.848-8.406,23.891c-1.346,4.223-3.416,5.895-8.158,5.811c-18.58-0.322-37.174-0.156-55.764-0.098
	c-4.523,0.012-11.641,12.08-9.283,15.855c1.381,2.209,3.984,1.025,5.986,1.029c31.436,0.082,62.873,0.057,94.309,0.068
	c1.338,0,2.674,0.135,4.896,0.258c-5.32,14.133-10.184,27.953-15.775,41.473c-2.451,5.93-1.455,7.232,4.861,7.195
	c37.721-0.229,75.445-0.109,113.17-0.109c2.719,0,5.436,0,8.154,0c0.09,0.588,0.178,1.174,0.268,1.764
	C479.071,513.798,417.894,525.925,355.521,538.288z"/>
<path fill-rule="evenodd" clip-rule="evenodd" fill="#121212" d="M607.903,337.852c-4.627,12.68-9.15,24.604-13.297,36.658
	c-1.65,4.796-5.24,3.827-8.631,3.827c-35.783,0.025-71.568,0.192-107.346-0.141c-6.223-0.058-8.949,1.871-11.131,7.622
	c-6.367,16.795-13.658,33.235-20.178,49.971c-1.676,4.301-3.797,5.66-8.307,5.494c-10.094-0.367-20.213-0.254-30.314-0.053
	c-3.832,0.076-5.639-0.467-4.057-4.855c7.111-19.715,13.02-39.943,21.357-59.119c10.889-25.044,31.775-38.342,58.613-39.103
	C525.274,337,565.987,337.852,607.903,337.852z"/>
<path fill-rule="evenodd" clip-rule="evenodd" fill="#131313" d="M566.093,451.069c-4.502,12.209-8.582,23.121-12.527,34.082
	c-1.029,2.859-2.965,3.373-5.684,3.365c-38.76-0.051-77.518-0.063-116.275,0.035c-3.662,0.01-5.178-0.914-3.709-4.625
	c0.199-0.506,0.508-0.971,0.693-1.48c3.717-10.223,4.697-23.693,11.91-29.748c6.98-5.859,20.43-1.514,31.031-1.568
	C502.632,450.966,533.735,451.069,566.093,451.069z"/>
<path fill-rule="evenodd" clip-rule="evenodd" fill="#721C46" d="M377.341,251.699c-3.191,12.045-6.004,22.719-8.848,33.385
	c-3.781,14.189-7.982,28.285-11.213,42.6c-1.543,6.835-6.252,5.499-10,4.775c-4.723-0.913-1.66-4.803-1.092-7.153
	c4.258-17.637,8.76-35.216,13.568-54.34c-7.535,2.414-13.57,4.349-19.617,6.288c-3.063-12.49-3.076-12.529,8.1-16.195
	C357.433,258.042,366.663,255.129,377.341,251.699z"/>
<path fill-rule="evenodd" clip-rule="evenodd" fill="#D7C0CB" d="M10.607,200.702c7.455-1.625,13.996,0.535,21.652,4.98
	c-8.307,1.162-14.36-4.262-21.125-1.938C10.958,202.732,10.783,201.715,10.607,200.702z"/>
<path fill-rule="evenodd" clip-rule="evenodd" fill="#D2B9C6" d="M242.305,369.023c-2.049,1.46-4.111,2.911-5.72,5.223
	c2.098-3.25-8.054-8.868,2.243-10.127c1.006,0.011,2.012,0.02,3.018,0.032c0.672,0.609,1.344,1.217,2.016,1.826
	c0.146,0.436,0.122,0.863-0.067,1.281C242.614,367.267,242.313,368.021,242.305,369.023z"/>
<path fill-rule="evenodd" clip-rule="evenodd" fill="#7C2F54" d="M164.111,208.436c-3.601-5.182-4.258-10.706-2.481-17.164
	c2.688,1.728,1.296,5.205,4.093,5.898C165.184,200.926,164.647,204.681,164.111,208.436z"/>
<path fill-rule="evenodd" clip-rule="evenodd" fill="#E6DAE0" d="M250.315,362.404c-0.269-3.237-2.192-5.543-4.653-7.25
	c-1.565-1.085-2.789-2.221-1.506-3.787c1.762-2.152,3.421-0.422,4.668,0.966c2.585,2.875,4.247,6.214,4.411,10.173
	c-0.598,0.026-1.195,0.054-1.795,0.08C251.044,362.657,250.668,362.597,250.315,362.404z"/>
<path fill-rule="evenodd" clip-rule="evenodd" fill="#DECDD5" d="M262.378,313.417c-8.653-4.436-8.653-4.436-9.922-13.009
	c4.842,1.766,3.649,11.765,11.763,8.525C265.27,311.11,264.409,312.504,262.378,313.417z"/>
<path fill-rule="evenodd" clip-rule="evenodd" fill="#7C2F54" d="M166.702,198.384c1.11-0.009,2.22-0.02,3.329-0.029
	c0.924,2.113,1.415,4.263,0.599,6.655C168.218,203.332,167.303,200.952,166.702,198.384z"/>
<path fill-rule="evenodd" clip-rule="evenodd" fill="#7C2F54" d="M158.427,175.394c0.576,1.635,1.15,3.271,1.724,4.906l-0.129,0.112
	c-3.146-0.305-3.494-2.43-3.23-4.957C157.338,175.435,157.882,175.414,158.427,175.394z"/>
<path fill-rule="evenodd" clip-rule="evenodd" fill="#7C2F54" d="M167.974,185.269c-1.209-0.896-1.481-2.119-1.214-3.523
	C167.855,182.682,168.244,183.862,167.974,185.269z"/>
<path fill-rule="evenodd" clip-rule="evenodd" fill="#7C2C52" d="M250.315,362.404c0.354,0.192,0.729,0.252,1.125,0.182
	c-0.485,0.73,1.488,2.776-1.233,2.315C250.244,364.07,250.279,363.237,250.315,362.404z"/>
<path fill-rule="evenodd" clip-rule="evenodd" fill="#7C2F54" d="M165.455,178.343c-1.097-0.182-1.696-0.833-1.815-1.933
	C164.245,177.055,164.851,177.699,165.455,178.343z"/>
<path fill-rule="evenodd" clip-rule="evenodd" fill="#7C2F54" d="M166.499,180.363c-0.358-0.688-0.716-1.374-1.076-2.061
	C165.782,178.987,166.141,179.675,166.499,180.363z"/>
<path fill-rule="evenodd" clip-rule="evenodd" fill="#711442" d="M243.862,365.978c-0.672-0.609-1.344-1.217-2.016-1.826
	c0.633-0.028,1.264-0.055,1.897-0.083c0.234,0.218,0.475,0.432,0.718,0.641C244.339,365.168,244.138,365.591,243.862,365.978z"/>
<path fill-rule="evenodd" clip-rule="evenodd" fill="#7C2C52" d="M242.305,369.023c0.008-1.001,0.309-1.756,1.489-1.764
	c0.12,0.508,0.254,1.01,0.405,1.51C243.568,368.854,242.937,368.937,242.305,369.023z"/>
<path fill-rule="evenodd" clip-rule="evenodd" fill="#FBF9FA" d="M200.81,357.542c1.086,4.473,2.909,8.964-0.672,13.624
	c-1.602-2.879-3.153-5.668-5.173-9.296c-3.221,8.619-5.683,3.884-8.125,0.188c-6.253-9.467-6.988-20.482-8.696-31.232
	c-0.893-5.628,0.226-13.11-4.035-16.299c-8.219-6.155-7.974-15.776-12.487-23.247c-3.141-5.201-5.492-11.427-12.838-12.575
	c-3.575-0.559-2.593-2.976-1.188-4.776c6.253-8.015,11.084-16.86,15.375-26.013c1.214-2.586,2.834-2.885,5.245-2.073
	c18.077,6.08,36.146,12.192,54.276,18.114c3.096,1.011,4.201,3.053,3.112,5.495c-1.882,4.215,1.937,10.521-5.252,12.849
	c-14.898,4.823-26.96,13.012-28.078,30.253c-0.719,11.082,0.857,22.008,13.202,27.327c-6.769,4.941-10.956,4.931-13.277-4.294
	c-1.336-5.313-4.89-10.247-10.576-13.647c1.054,13.797,4.537,25.702,16.112,33.749C198.285,357.091,199.462,357.458,200.81,357.542z
	"/>
<path fill-rule="evenodd" clip-rule="evenodd" fill="#EBE3E7" d="M200.81,357.542c-1.348-0.083-2.525-0.45-3.075-1.855
	c0.863-6.381,4.848-3.432,6.989-1.723c8.805,7.032,15.44,15.318,12.354,29.031c-3.965-8.081-6.034-16.056-11.038-22.396
	C204.854,359.097,204.55,355.043,200.81,357.542z"/>
<path fill-rule="evenodd" clip-rule="evenodd" fill="#E6D8DF" d="M176.061,382.821c-1.487-4.901-6.605-8.198-7.3-15.596
	C174.071,372.472,176.745,376.837,176.061,382.821z"/>
<path fill-rule="evenodd" clip-rule="evenodd" fill="#7C2C52" d="M243.744,364.068c-0.634,0.028-1.265,0.055-1.897,0.083
	c-1.006-0.013-2.012-0.021-3.018-0.032c0.337-2.15-0.703-5.591,2.782-5.362C244.18,358.924,243.551,362.035,243.744,364.068z"/>
<path fill-rule="evenodd" clip-rule="evenodd" fill="#7C2F54" d="M160.151,180.3c0.414,0.617,0.833,1.229,1.209,1.866
	c0.016,0.026-0.398,0.302-0.61,0.461c-0.243-0.739-0.483-1.479-0.728-2.216C160.022,180.412,160.151,180.3,160.151,180.3z"/>
</svg>
